<?xml version="1.0" standalone="no"?><svg xmlns="http://www.w3.org/2000/svg" viewBox="0 0 1440 320"><path fill="#7045f7" fill-opacity="1" d="M0,64L24,90.7C48,117,96,171,144,192C192,213,240,203,288,186.7C336,171,384,149,432,128C480,107,528,85,576,80C624,75,672,85,720,96C768,107,816,117,864,144C912,171,960,213,1008,202.7C1056,192,1104,128,1152,112C1200,96,1248,128,1296,154.7C1344,181,1392,203,1416,213.3L1440,224L1440,320L1416,320C1392,320,1344,320,1296,320C1248,320,1200,320,1152,320C1104,320,1056,320,1008,320C960,320,912,320,864,320C816,320,768,320,720,320C672,320,624,320,576,320C528,320,480,320,432,320C384,320,336,320,288,320C240,320,192,320,144,320C96,320,48,320,24,320L0,320Z"></path></svg>